<mxfile host="app.diagrams.net" modified="2023-08-24T00:40:11.845Z" agent="Mozilla/5.0 (Macintosh; Intel Mac OS X 10_15_7) AppleWebKit/537.36 (KHTML, like Gecko) Chrome/116.0.0.0 Safari/537.36" version="21.6.9" etag="tLHrzcEE_OquVdIaxHGD" type="github">
  <diagram name="페이지-1" id="yIkFEIXAP38j0XOQciwj">
    <mxGraphModel>
      <root>
        <mxCell id="0" />
        <mxCell id="1" parent="0" />
      </root>
    </mxGraphModel>
  </diagram>
</mxfile>
